<svg width="51" height="51" viewBox="0 0 51 51" fill="none" xmlns="http://www.w3.org/2000/svg">
<path d="M41.7563 9.56251L35.9338 2.04001L44.285 0.382507L45.9425 8.71251L41.7563 9.56251ZM35.5088 10.7738L29.6863 3.27251L25.5 4.10126L31.3438 11.6025L35.5088 10.7738ZM25.0963 12.8563L19.2738 5.31251L15.0875 6.18376L20.9313 13.685L25.0963 12.8563ZM8.84001 7.43751L6.75751 7.84126C6.2101 7.9492 5.68939 8.16414 5.22522 8.47375C4.76106 8.78337 4.36258 9.18156 4.05263 9.64549C3.74268 10.1094 3.52736 10.63 3.41901 11.1773C3.31067 11.7246 3.31143 12.288 3.42126 12.835L4.25001 17L14.6625 14.9388L8.84001 7.43751ZM46.75 17V38.25C46.75 40.6088 44.8588 42.5 42.5 42.5H8.50001C7.37284 42.5 6.29183 42.0522 5.4948 41.2552C4.69777 40.4582 4.25001 39.3772 4.25001 38.25V17H46.75ZM42.5 21.25H8.50001V38.25H42.5V21.25Z" fill="white"/>
<path d="M42.5 21.25H8.50001V38.25H42.5V21.25Z" fill="white"/>
</svg>
